<?xml version="1.0" encoding="UTF-8"?>
<svg width="341px" height="338px" viewBox="0 0 341 338" version="1.1" xmlns="http://www.w3.org/2000/svg" xmlns:xlink="http://www.w3.org/1999/xlink">
    <!-- Generator: sketchtool 52.6 (67491) - http://www.bohemiancoding.com/sketch -->
    <title>D78F0AB0-90B4-4ADD-A09E-D8573A54D6C9</title>
    <desc>Created with sketchtool.</desc>
    <defs>
        <polygon id="path-1" points="0.0137959184 0.303510204 85.1306706 0.303510204 85.1306706 166.83207 0.0137959184 166.83207"/>
        <polygon id="path-3" points="0.445411079 0.543953353 125.232449 0.543953353 125.232449 47.6816501 0.445411079 47.6816501"/>
        <polygon id="path-5" points="0.0877026239 0.0965714286 124.874741 0.0965714286 124.874741 46.3858192 0.0877026239 46.3858192"/>
        <polygon id="path-7" points="0.64348105 0.0788338192 154.807942 0.0788338192 154.807942 88.4771662 0.64348105 88.4771662"/>
        <polygon id="path-9" points="0.126134111 0.320262391 151.193411 0.320262391 151.193411 84.5926297 0.126134111 84.5926297"/>
    </defs>
    <g id="Symbols" stroke="none" stroke-width="1" fill="none" fill-rule="evenodd">
        <g id="Illustration/IbouLaptopV2">
            <g id="ibou" transform="translate(15.000000, 0.000000)">
                <path d="M44.1991662,3.52584257 C47.4530321,0.836623907 51.8568863,-0.315335277 57.4117143,0.0729212828 L231.313207,25.2721516 C239.331592,26.433965 240.353475,26.9522974 244.374985,30.566828 C247.055335,32.9752012 248.828111,36.7158659 249.692327,41.7898076 L284.450157,252.366764 C285.281854,257.178583 284.574321,261.258233 282.329528,264.605714 C280.08572,267.954181 276.430787,270.378321 271.367685,271.878134 L34.8080875,306.353149 C29.6326472,306.796589 25.8732595,305.935329 23.5289388,303.767399 C21.1856035,301.599469 19.9124373,297.805592 19.7084548,292.385767 L39.0000758,15.2858776 C39.2119417,10.1350729 40.9453003,6.21506122 44.1991662,3.52584257 Z" id="Path" fill="#ff7900"/>
                <path d="M113.704974,264.818566 L114.113924,266.491813 C116.150793,263.411382 117.438741,259.781085 118.336461,256.253271 C121.110426,245.352525 120.554647,233.928519 120.72414,222.782402 C120.916297,210.127603 121.029621,197.076665 117.523487,184.819977 C102.20509,193.609948 96.2560933,194.342117 82.33207,205.490204 C65.8321516,231.462006 32.4874169,276.283959 32.4874169,276.283959 L65.7927347,291.314612 L93.702863,260.961621 C101.771504,250.900455 108.950309,252.830898 113.704974,264.818566 Z M194.841726,265.667015 L194.432776,267.339277 C192.395907,264.259831 191.107959,260.629534 190.210239,257.100735 C187.436274,246.201959 187.992052,234.776968 187.82256,223.630851 C187.630402,210.976052 187.517079,197.925114 191.022227,185.668426 C206.341609,194.458397 212.290606,195.190566 226.21463,206.338653 C242.714548,232.310455 276.059283,277.131423 276.059283,277.131423 L244.57207,292.177843 L214.843837,261.81007 C206.77421,251.748904 199.596391,253.679347 194.841726,265.667015 Z" id="Shape" fill="#FFFFFF" fill-rule="nonzero"/>
                <g id="Group" transform="translate(110.073691, 164.480851)">
                    <g id="Clipped">
                        <mask id="mask-2" fill="white">
                            <use xlink:href="#path-1"/>
                        </mask>
                        <g id="a"/>
                        <path d="M75.5178717,51.9022157 C73.6189621,44.2257726 73.0700816,36.4448746 72.6276268,28.5772595 C72.3852128,24.2611079 72.038344,19.9360875 71.8116968,15.6159942 C64.8122391,11.2219942 58.084758,6.39440816 51.7642566,0.936151603 C51.541182,0.741735054 51.3336136,0.53021294 51.1434402,0.303510204 C48.914414,0.691766764 43.2630146,1.49094461 37.3573761,1.57076385 C31.4862274,5.30354519 25.5539825,9.01169096 19.5291079,12.5641399 C19.4364781,16.3698426 19.0915802,20.1725889 18.5880292,23.9457726 C17.5927522,31.4004956 16.014105,38.7606181 14.4916268,46.1207405 C13.3347405,51.7100583 12.3729679,57.3447055 10.8761108,62.8571603 C8.8658484,70.2655685 5.89578426,79.1885714 0.0137959184,84.7394577 L4.27870554,168.444222 L6.0061516,218.100659 L71.5978601,220.170047 L85.1306706,75.6982041 C84.5240902,74.6417342 83.9373325,73.574006 83.3707055,72.4955802 C79.9611429,65.9701108 77.2867055,59.0514577 75.5178717,51.9032012" id="Path" fill="#FFFFFF" mask="url(#mask-2)"/>
                    </g>
                </g>
                <path d="M116.165574,184.565738 L106.060064,249.968245 L105.961522,310.451522 C105.961522,310.451522 130.145767,341.862857 140.466099,316.475411 C145.74698,303.485569 142.65965,223.321429 142.65965,223.321429 L135.064012,173.770431 C128.865703,177.544601 122.578706,181.193621 116.165574,184.565738 M175.011079,175.568828 L175.028816,178.597032 L172.763329,229.102904 C172.763329,229.102904 172.459819,311.703994 175.758029,320.915726 C182.249994,339.045534 198.270997,317.37116 198.270997,317.37116 L199.92158,250.885673 L191.927831,186.023178 C186.128618,182.796904 180.467364,179.342997 175.010093,175.567843" id="Shape" fill="#58BC89" fill-rule="nonzero"/>
                <path d="M137.691149,175.444665 L141.332286,165.570729 C141.332286,165.570729 144.369359,165.733324 144.854187,166.950321 C145.34,168.167318 155.183388,193.364577 155.183388,193.364577 C155.183388,193.364577 164.87502,179.667201 164.485778,177.765335 L162.609534,165.01298 C162.609534,165.01298 167.061673,162.391755 168.503347,164.946956 C169.94502,167.501172 172.417446,176.677429 172.417446,176.677429 L173.387102,181.009347 L167.705155,218.356869 L158.853102,200.439913 L153.38302,200.863644 C153.38302,200.863644 146.535318,219.961137 146.05049,218.743155 C145.626758,217.68284 139.958606,191.172012 138.266636,183.886781 C138.010426,182.781137 137.363988,176.532571 137.691149,175.444665" id="Path" fill="#FFFFFF"/>
                <path d="M168.56937,142.375848 C168.56937,142.375848 166.415236,169.330117 166.478303,176.788781 C166.496041,178.887732 162.326717,186.34344 159.270921,191.520851 C157.795743,194.02284 154.247236,194.204157 152.525703,191.865749 L141.824012,177.326822 C141.824012,177.326822 143.878618,158.613644 142.910933,141.439697 C142.910933,141.439697 159.901592,161.690134 168.56937,142.375848" id="Path" fill="#62352E"/>
                <path d="M176.127563,179.615959 L176.006356,180.251557 C175.846717,181.083254 176.427131,182.020391 177.293318,182.145539 C178.162461,182.271673 179.017808,181.75137 179.1873,180.858577 L179.308507,180.22298 C179.468146,179.391283 178.888717,178.454146 178.021545,178.328997 C177.153388,178.203848 176.297055,178.723166 176.127563,179.615959 M176.607464,195.447761 L175.878251,199.264303 C175.488023,201.311026 178.668968,201.921003 179.060181,199.871324 L179.789394,196.054781 C180.179621,194.008058 176.998676,193.398082 176.607464,195.447761 M175.744233,218.328292 L175.01502,222.144834 C174.624793,224.191557 177.804752,224.801534 178.19695,222.751854 L178.925178,218.935312 C179.316391,216.888589 176.135446,216.278612 175.744233,218.328292 M175.528426,229.552257 L174.799213,233.369784 C174.408985,235.415522 177.588945,236.026484 177.980157,233.975819 L178.70937,230.160262 C179.100583,228.112554 175.919638,227.502577 175.528426,229.552257 M177.040064,185.302834 L176.310851,189.119376 C175.920624,191.165114 179.100583,191.776076 179.491796,189.726397 L180.221009,185.909854 C180.612222,183.863131 177.431277,183.253155 177.040064,185.302834 M175.732408,205.265528 L175.381598,211.118939 C175.32937,211.997936 175.732408,212.82372 176.66856,213.011936 C177.441131,213.167633 178.5113,212.598058 178.563528,211.724974 L178.914338,205.873534 C178.966566,204.993551 178.564513,204.168752 177.626391,203.979551 C176.853819,203.822869 175.785621,204.393429 175.732408,205.265528 M174.388292,241.023563 L174.538076,243.689131 C174.587347,244.535609 175.429883,245.279603 176.282274,245.173178 C177.171125,245.06281 177.819534,244.335569 177.767306,243.42898 L177.617522,240.764397 C177.569236,239.916933 176.7267,239.172939 175.873324,239.279364 C174.984472,239.390717 174.33705,240.116974 174.388292,241.023563 M176.585784,254.593819 L176.69221,260.561539 C176.729656,262.644723 179.957901,262.382601 179.92144,260.302373 L179.815015,254.333668 C179.778554,252.251469 176.549324,252.513592 176.585784,254.593819 M176.969114,269.609691 C177.249959,270.864134 177.076525,272.127446 176.677429,273.332618 C176.40151,274.163329 177.184921,275.076816 177.964391,275.225615 C178.917294,275.407918 179.581469,274.772321 179.858373,273.938653 C180.449627,272.157994 180.428933,270.343831 180.021953,268.528682 C179.830781,267.675306 178.708385,267.275224 177.954536,267.543259 C177.049918,267.863522 176.776956,268.752373 176.969114,269.609691 M177.652997,283.157283 L177.875703,288.491376 C177.96242,290.572589 181.19165,290.314408 181.103948,288.23221 C181.031026,286.453522 180.956134,284.674834 180.882227,282.897131 C180.79551,280.815918 177.56628,281.074099 177.652997,283.157283 M177.894426,298.400787 L178.550717,304.506466 C178.772437,306.572898 182.002653,306.326542 181.778962,304.246315 L181.123656,298.140636 C180.901936,296.074204 177.67172,296.32056 177.894426,298.400787 M179.169563,312.485434 C179.35088,313.839405 179.533184,315.191405 179.713516,316.545376 C179.989434,318.599983 183.220636,318.358554 182.942746,316.285224 L182.398793,312.225283 C182.122875,310.170676 178.891673,310.412105 179.169563,312.485434 M182.317988,322.781131 C183.788239,323.394064 185.386595,323.475854 186.880496,322.881644 C187.691499,322.559411 188.166472,321.661691 187.865918,320.815213 C187.582117,320.014064 186.614431,319.504601 185.798501,319.82979 C185.105749,320.105708 184.412997,320.153009 183.749808,319.87512 C182.943732,319.540076 181.98393,319.794315 181.581878,320.613201 C181.213329,321.361137 181.507971,322.443131 182.317988,322.781131 M191.291248,320.398379 L193.443411,319.490805 C194.221895,319.161673 194.770776,318.267895 194.428834,317.423388 C194.116455,316.650816 193.197055,316.086169 192.362402,316.437965 L190.210239,317.346525 C189.431755,317.674671 188.882875,318.568449 189.223831,319.412956 C189.53621,320.186513 190.455609,320.75116 191.291248,320.398379 M195.600501,314.194157 L196.237085,314.315364 C197.068781,314.475003 198.005918,313.895574 198.131067,313.029388 C198.257201,312.160245 197.736898,311.304898 196.844105,311.135405 L196.208507,311.014198 C195.375825,310.855545 194.439673,311.434974 194.313539,312.30116 C194.188391,313.169318 194.708694,314.023679 195.600501,314.194157 M130.292595,182.272659 L131.386414,186.475487 C131.606163,187.321965 132.680274,187.735843 133.452845,187.46091 C134.335784,187.148531 134.660974,186.243913 134.440239,185.394478 L133.34642,181.19165 C133.125685,180.344187 132.05256,179.931294 131.279003,180.205242 C130.396064,180.518606 130.07186,181.422239 130.29358,182.272659 M133.667668,196.066606 L135.100472,201.676618 C135.616834,203.693778 138.667703,202.603901 138.155283,200.595609 L136.720507,194.985598 C136.205131,192.968437 133.153277,194.057329 133.667668,196.066606 M135.927242,208.095662 L136.712624,210.882437 C136.949125,211.723988 137.994659,212.14772 138.780041,211.868845 C139.649184,211.560408 140.004921,210.646921 139.765464,209.801429 L138.980082,207.014653 C138.74358,206.173102 137.699032,205.750356 136.912665,206.02923 C136.043522,206.336682 135.68877,207.251155 135.927242,208.095662 M136.574665,218.024781 L137.360047,220.811557 C137.597534,221.654093 138.642082,222.07684 139.428449,221.797965 C140.297592,221.489528 140.652344,220.576041 140.413872,219.731534 L139.62849,216.943773 C139.391988,216.102222 138.346455,215.679475 137.561073,215.95835 C136.690945,216.265802 136.336192,217.180274 136.57565,218.024781 M136.990513,228.246571 C137.270373,229.289149 137.162962,230.315959 136.8427,231.333901 C136.578606,232.169539 137.341324,233.078099 138.128676,233.227883 C139.071726,233.40723 139.759551,232.778531 140.023644,231.940921 C140.518327,230.370157 140.46807,228.745195 140.044338,227.166548 C139.817691,226.322041 138.755405,225.905207 137.976921,226.18014 C137.099895,226.491534 136.763866,227.399108 136.991499,228.246571 M137.556146,239.95635 L137.979878,244.651889 C138.166122,246.724233 141.395353,246.474921 141.208122,244.391738 L140.784391,239.696198 C140.598146,237.62484 137.368915,237.874152 137.556146,239.95635 M138.049843,254.568198 L138.715003,257.990571 C138.880554,258.848875 139.518122,259.550496 140.459201,259.475603 C141.256408,259.411551 142.111755,258.594636 141.943248,257.731405 L141.279073,254.308047 C141.112536,253.450729 140.475953,252.749108 139.534875,252.824 C138.736682,252.887067 137.882321,253.704968 138.049843,254.568198 M138.619417,264.599802 C138.791866,264.853055 138.964315,265.105324 139.134793,265.358577 C139.611738,266.058227 140.681907,266.30951 141.384513,265.787236 C142.08909,265.262991 142.322636,264.286437 141.814157,263.538501 L141.298781,262.779726 C140.822822,262.080076 139.751668,261.828793 139.050047,262.351067 C138.345469,262.875312 138.111924,263.851866 138.620402,264.599802 M138.455837,273.292216 L137.970023,275.836577 C137.81137,276.668274 138.390799,277.605411 139.256985,277.729574 C140.126128,277.856694 140.981475,277.335405 141.150968,276.443598 L141.636781,273.899236 C141.79642,273.067539 141.216006,272.131388 140.349819,272.005254 C139.480676,271.880105 138.625329,272.400408 138.455837,273.292216 M136.327324,291.34516 L135.598111,295.161703 C135.207883,297.208426 138.388828,297.818402 138.780041,295.768723 L139.509254,291.952181 C139.899481,289.905458 136.718536,289.295481 136.327324,291.34516 M134.5713,303.99109 C134.64028,304.952863 134.372245,305.823977 133.75537,306.567971 C132.42505,308.17421 134.863971,310.303708 136.195277,308.696484 C137.357578,307.314441 137.933648,305.532831 137.800531,303.731924 C137.652717,301.654653 134.423487,301.907907 134.5713,303.99109 M130.466029,315.083009 C130.466029,315.08498 130.49165,315.510682 130.501504,315.353015 C130.511359,315.177609 130.452233,315.574735 130.440408,315.615137 C130.511359,315.391446 130.413802,315.646671 130.361574,315.729446 C130.215732,315.962006 130.594134,315.485061 130.268945,315.851638 C130.22263,315.903866 130.097481,316.03 130.225586,315.918647 C130.225586,315.918647 129.890542,316.148251 130.00091,316.089125 C130.126058,316.022117 129.77919,316.171901 129.737802,316.181755 C129.991055,316.120659 129.54663,316.173872 129.504257,316.174857 C128.629201,316.18077 127.953201,317.093271 128.019224,317.919055 C128.093131,318.843382 128.886397,319.409015 129.763423,319.403102 C132.074239,319.385364 134.015522,317.10214 133.695259,314.823843 C133.573067,313.957656 132.859621,313.266875 131.951061,313.339796 C131.117394,313.405819 130.343837,314.213866 130.466029,315.083994 M122.813236,316.364058 L120.511289,314.606064 C119.83923,314.091673 118.796653,314.048315 118.225108,314.760776 C117.706776,315.408198 117.663417,316.49512 118.38179,317.044985 L120.682752,318.803965 C121.35481,319.318356 122.397388,319.361714 122.968933,318.649254 C123.48628,318.000845 123.530624,316.913924 122.812251,316.364058 M112.209102,307.618431 L110.428443,306.606402 C109.691347,306.186612 108.595557,306.574869 108.259528,307.343499 C107.889994,308.18702 108.2073,309.063061 108.996624,309.511429 L110.777283,310.523458 C111.514379,310.942262 112.610169,310.554006 112.945213,309.786362 C113.315732,308.94284 112.99744,308.066799 112.209102,307.618431" id="Shape" fill="#010101" fill-rule="nonzero"/>
                <path d="M37.3337259,268.191668 L67.0590029,285.194152 C69.3294169,286.593452 68.9786064,289.696548 67.9596793,292.16109 C66.5485539,295.568682 65.0447988,298.158373 61.1720875,300.726385 C55.9670845,304.177335 36.8291895,290.55288 28.392,284.175224 C26.0247899,282.387768 25.3340401,279.130656 26.771965,276.536227 C28.2313761,273.906134 29.1586589,272.774869 30.9186239,270.234449 C32.5672362,267.853668 34.8681983,266.673131 37.3337259,268.191668" id="Path" fill="#D6D6D6"/>
                <g id="Group" transform="translate(9.672910, 283.632257)">
                    <g id="Clipped">
                        <mask id="mask-4" fill="white">
                            <use xlink:href="#path-3"/>
                        </mask>
                        <g id="c"/>
                        <path d="M18.718105,0.543953353 C18.718105,0.543953353 -0.965714286,28.3052828 0.527201166,38.3782741 C1.35791254,43.9873003 13.6185423,67.4640117 83.8614461,20.0957259 C83.8614461,20.0957259 85.8470729,22.4755219 98.824105,24.4581924 C113.787749,26.7433878 108.591615,27.1582507 108.591615,27.1582507 C108.591615,27.1582507 107.55298,32.9761866 116.280869,32.7682624 C122.0653,32.6303032 126.139038,26.2309679 122.247603,23.8965015 C122.247603,23.8965015 128.923843,16.1707872 122.307714,13.4470787 C122.307714,13.4470787 117.277131,9.00972012 118.359125,4.09837318 L83.4455977,2.85181341 C83.4455977,2.85181341 47.8629679,17.6627172 37.9052711,19.7271778 L42.8688455,16.5866356 L18.718105,0.543953353 Z" id="Path" fill="#725048" mask="url(#mask-4)"/>
                    </g>
                </g>
                <path d="M87.3823615,206.201679 L89.320688,208.796297 C89.8429621,209.495948 90.7199883,209.853656 91.5359184,209.377697 C92.2257143,208.973673 92.6435335,207.866058 92.1173178,207.161481 L90.1780058,204.567848 C89.6557318,203.868198 88.7787055,203.51049 87.9627755,203.986449 C87.2729796,204.390472 86.8551603,205.497102 87.3813761,206.201679 M93.038688,215.552356 C93.4081654,217.075299 94.2035158,218.461609 95.3317668,219.54923 C96.8305948,220.997802 99.1236735,218.711621 97.6218892,217.260093 C96.8938664,216.565767 96.3860149,215.672743 96.1614927,214.692082 C95.6737085,212.667038 92.5499184,213.524356 93.038688,215.552356 M96.9311079,223.963924 L98.8260758,229.162029 C99.5345948,231.104297 102.665283,230.265703 101.949866,228.301755 L100.053913,223.10365 C99.346379,221.162367 96.215691,221.999977 96.9311079,223.963924 M100.939808,236.022542 L102.884047,240.555487 C103.228945,241.358606 104.411452,241.537953 105.099277,241.135901 C105.930974,240.650087 106.02656,239.726746 105.680676,238.920671 L103.736437,234.387726 C103.391539,233.584606 102.209032,233.405259 101.521207,233.807312 C100.68951,234.293125 100.59491,235.215481 100.939808,236.022542" id="Shape" fill="#D6D6D6" fill-rule="nonzero"/>
                <path d="M104.168052,246.38919 C104.638099,247.360816 104.724816,248.388612 104.600653,249.448927 C104.499155,250.319055 105.418554,251.067977 106.219703,251.067977 C107.18049,251.067977 107.737254,250.322012 107.839738,249.448927 C108.03091,247.813125 107.677143,246.226595 106.964682,244.754373 C106.583324,243.968006 105.461913,243.757125 104.749452,244.173959 C103.945347,244.644006 103.785708,245.59888 104.168052,246.38919" id="Path" fill="#505052"/>
                <path d="M271.212974,269.040117 L241.487697,286.042601 C239.217283,287.441901 239.568093,290.544997 240.58702,293.009539 C241.998146,296.417131 243.501901,299.006822 247.374612,301.574834 C252.579615,305.025784 271.71751,291.401329 280.1547,285.023673 C282.52191,283.236217 283.21266,279.979105 281.774735,277.384676 C280.315324,274.754583 279.388041,273.623318 277.628076,271.082898 C275.979464,268.703102 273.678501,267.52158 271.212974,269.040117" id="Path" fill="#D6D6D6"/>
                <g id="Group" transform="translate(173.552653, 284.927102)">
                    <g id="Clipped">
                        <mask id="mask-6" fill="white">
                            <use xlink:href="#path-5"/>
                        </mask>
                        <g id="e"/>
                        <path d="M106.602047,0.0965714286 C106.602047,0.0965714286 126.286851,27.8588863 124.79295,37.9308921 C123.963224,43.5399184 111.701609,67.0166297 41.4587055,19.648344 C41.4587055,19.648344 39.4740641,22.0291254 26.4960466,24.0108105 C11.5333878,26.2969913 16.7285364,26.7118542 16.7285364,26.7118542 C16.7285364,26.7118542 17.767172,32.5288047 9.0392828,32.3218659 C3.25485131,32.1839067 -0.818886297,25.7845714 3.0725481,23.450105 C3.0725481,23.450105 -3.60369096,15.7243907 3.01243732,12.9996968 C3.01243732,12.9996968 8.04302041,8.56332362 6.96102624,3.65099125 L41.8745539,2.40443149 C41.8745539,2.40443149 77.4571837,17.2163207 87.4148805,19.2797959 L82.4503207,16.1412245 L106.603032,0.0975568513 L106.602047,0.0965714286 Z" id="Path" fill="#725048" mask="url(#mask-6)"/>
                    </g>
                </g>
                <path d="M221.164338,207.050128 L219.226012,209.644746 C218.703738,210.344397 217.826711,210.702105 217.010781,210.226146 C216.320985,209.822122 215.903166,208.714507 216.429382,208.00993 L218.367708,205.416297 C218.889983,204.716647 219.767994,204.358939 220.582939,204.834898 C221.272735,205.238921 221.690554,206.345551 221.164338,207.050128 M215.508012,216.400805 C215.138534,217.923748 214.343184,219.310058 213.214933,220.397679 C211.716105,221.846251 209.423026,219.56007 210.92481,218.108542 C211.652833,217.414216 212.160685,216.521192 212.385207,215.540531 C212.872991,213.515487 215.995796,214.372805 215.508012,216.400805 M211.615592,224.812373 L209.719638,230.010478 C209.012105,231.952746 205.881417,231.114152 206.596834,229.150204 L208.492787,223.952099 C209.200321,222.010816 212.331009,222.848426 211.615592,224.812373 M207.606892,236.870991 L205.662653,241.403936 C205.317755,242.207055 204.135248,242.386402 203.446437,241.98435 C202.615726,241.498536 202.52014,240.576181 202.865038,239.76912 C203.514431,238.258466 204.161854,236.747813 204.810262,235.236175 C205.15516,234.433055 206.337668,234.253708 207.025493,234.654776 C207.856204,235.141574 207.95179,236.06393 207.606892,236.870991" id="Shape" fill="#D6D6D6" fill-rule="nonzero"/>
                <path d="M204.378647,247.237638 C203.908601,248.209265 203.821883,249.238047 203.945061,250.297376 C204.047545,251.167504 203.128146,251.916426 202.326012,251.916426 C201.36621,251.916426 200.808461,251.170461 200.706962,250.297376 C200.51579,248.661574 200.869557,247.075044 201.582017,245.602822 C201.963376,244.816455 203.084787,244.605574 203.797248,245.021423 C204.601353,245.492455 204.760991,246.447329 204.378647,247.237638" id="Path" fill="#505052"/>
                <path d="M122.330379,104.573061 C121.9707,100.846192 117.984665,98.1550029 114.252869,98.453586 C113.351207,98.5265073 112.419983,98.7610379 111.756793,99.3749563 C110.886665,100.183003 110.662974,101.45814 110.572315,102.640647 C110.039201,109.541563 112.344105,116.344921 115.144676,122.674292 C116.231598,125.12898 117.55502,127.7167 119.948612,128.930741 C120.828595,129.377137 121.939166,129.590974 122.77579,129.066729 C123.278356,128.751394 123.600589,128.222222 123.883405,127.701918 C125.062715,125.532923 125.886166,123.188666 126.322327,120.75863 L122.331364,104.572076 M182.98709,107.952076 C183.671003,105.006817 185.095973,102.285093 187.126851,100.045044 C187.544671,99.5868222 188.018659,99.1315569 188.620752,98.9847289 C189.143026,98.8585948 189.694863,98.9837434 190.194472,99.1788571 C192.186997,99.9573411 193.606006,101.828659 194.282991,103.856659 C194.959977,105.88663 194.982641,108.074268 194.858478,110.208694 C194.486005,116.480414 192.897591,122.619873 190.181662,128.285289 C189.593364,129.509184 188.921306,130.74786 187.845224,131.576601 C186.768157,132.404356 185.184583,132.71772 184.045434,131.975697 C182.815627,131.175534 182.526898,129.531848 182.349522,128.076379 L182.98709,107.952076" id="Shape" fill="#62352E" fill-rule="nonzero"/>
                <path d="M119.661854,113.334455 C118.46358,97.6169621 110.020478,47.7378192 112.020886,43.9133936 C115.23435,37.7692828 138.873656,23.0549504 154.223586,23.0549504 C167.617452,23.0549504 195.172828,36.6488571 196.427271,39.6474985 C197.440286,42.0686822 189.812128,103.989691 186.744507,118.472449 C170.173653,117.250153 153.53332,117.304512 136.970805,118.635044 L119.661854,113.334455" id="Path" fill="#030303"/>
                <path d="M145.853405,163.947738 C148.554449,166.999592 157.311901,167.138536 160.453429,164.540962 C177.737743,150.239522 187.003673,125.077738 187.003673,122.419067 C187.003673,113.771983 183.847364,72.8818659 180.552111,67.5280641 C179.542052,65.8873353 174.731219,67.4157259 168.378198,68.9441166 C163.643242,70.0842507 158.050968,71.222414 152.539499,71.0489796 C141.328344,70.6961983 130.014706,63.8918542 126.951026,67.5280641 C126.951026,67.5280641 119.043009,110.889621 120.279714,117.478157 C120.652204,119.46477 118.860706,133.447918 145.853405,163.947738" id="Path" fill="#725048"/>
                <path d="M171.995685,137.118618 L171.681335,136.664338 C171.494105,136.384478 171.218187,136.01593 170.902851,135.614863 C170.233749,134.801889 169.538041,133.8953 168.433382,132.615236 C168.433382,132.615236 168.626525,132.53049 168.978321,132.497971 C169.330117,132.462496 169.846478,132.510781 170.409155,132.787685 C170.968875,133.058676 171.557172,133.590805 171.921778,134.371259 C172.286385,135.139889 172.39281,136.184437 171.995685,137.118618 M137.126501,136.798356 C137.152122,136.824962 136.656455,136.181481 136.941242,135.120181 C137.079201,134.61663 137.423114,134.071691 137.963125,133.741574 C138.492297,133.411458 139.250087,133.340507 139.821633,133.741574 C139.821633,133.741574 139.333848,134.317061 139.005703,134.871854 C138.822414,135.147773 138.643067,135.409895 138.357294,135.662163 C138.079405,135.932169 137.666513,136.164729 137.126501,136.798356 M163.818647,142.50691 L163.483603,142.894181 C163.260898,143.142507 162.93965,143.519924 162.479458,143.941685 C161.224971,145.149065 159.769328,146.128164 158.178087,146.834886 C157.100962,147.293902 155.966602,147.60484 154.805971,147.759213 C153.570251,147.918851 152.235003,147.897172 150.897784,147.629137 C148.224332,147.095038 145.546939,145.622816 143.638175,143.326781 C143.638175,143.326781 143.78993,143.402659 144.06979,143.528793 C144.34965,143.652956 144.759586,143.829347 145.285802,144.030373 C146.337248,144.429469 147.850857,144.936962 149.694583,145.255254 C151.539294,145.575516 153.705254,145.684898 156.083079,145.265108 C158.46386,144.861085 161.056507,143.910152 163.818647,142.50691 M143.204589,104.277434 L142.047703,103.605376 C141.312577,103.188542 140.267044,102.566741 138.947563,102.131184 C138.246317,101.90098 137.515435,101.773523 136.777662,101.752781 C135.987353,101.728146 135.130035,101.807965 134.222461,101.90158 C133.321784,101.997166 132.399429,102.11049 131.498752,102.351918 C130.602017,102.592362 129.708239,102.96288 128.993808,103.645778 L129.161329,103.367889 C129.27958,103.191499 129.469767,102.931347 129.77919,102.654443 C130.382268,102.082898 131.483971,101.473907 132.917761,101.124082 C133.63712,100.942764 134.411662,100.808746 135.267994,100.716117 C136.122356,100.629399 137.086099,100.610676 138.071522,100.850134 C139.052017,101.08565 139.993096,101.552741 140.84056,102.156805 C141.69295,102.760869 142.458624,103.493038 143.204589,104.276449 M177.009516,104.277434 L175.85263,103.605376 C175.11849,103.188542 174.071971,102.566741 172.75249,102.131184 C172.051244,101.90098 171.320362,101.773523 170.582589,101.752781 C169.794251,101.728146 168.934962,101.807965 168.027388,101.90158 C167.127697,101.997166 166.205341,102.11049 165.303679,102.351918 C164.406945,102.592362 163.514152,102.96288 162.79972,103.645778 L162.966257,103.367889 C163.085493,103.191499 163.275679,102.931347 163.585102,102.654443 C164.188181,102.082898 165.289883,101.473907 166.723673,101.124082 C167.442047,100.942764 168.217574,100.808746 169.072921,100.716117 C169.927283,100.629399 170.891026,100.610676 171.877434,100.850134 C172.856945,101.08565 173.799009,101.552741 174.646472,102.156805 C175.497878,102.760869 176.264536,103.493038 177.009516,104.276449 M151.877294,108.411283 C151.975837,107.709662 150.970706,107.475131 150.745044,108.146204 C149.782286,111.007872 148.660875,114.316921 147.766111,116.898729 C146.588531,120.29351 145.669131,126.498717 146.963977,127.793563 C148.259808,129.088408 151.093883,131.711603 156.780758,127.560017 C160.525364,124.826455 152.654793,126.407073 150.927347,125.328035 C149.818746,124.634297 150.936216,115.124968 151.877294,108.411283" id="Shape" fill="#62352E" fill-rule="nonzero"/>
                <g id="Group" transform="translate(74.448688, 242.835755)">
                    <g id="Clipped">
                        <mask id="mask-8" fill="white">
                            <use xlink:href="#path-7"/>
                        </mask>
                        <g id="g"/>
                        <path d="M145.602122,88.5796501 L9.84930029,88.5796501 C4.76451895,88.5796501 0.64348105,84.4586122 0.64348105,79.3758017 L0.64348105,9.28169679 C0.64348105,4.1988863 4.76451895,0.0778483965 9.84930029,0.0778483965 L145.602122,0.0778483965 C150.686904,0.0778483965 154.807942,4.1988863 154.807942,9.28169679 L154.807942,79.3748163 C154.807942,84.4586122 150.686904,88.5786647 145.602122,88.5786647" id="Path" fill="#7E7B7C" mask="url(#mask-8)"/>
                    </g>
                </g>
                <g id="Group" transform="translate(76.390956, 246.720292)">
                    <g id="Clipped">
                        <mask id="mask-10" fill="white">
                            <use xlink:href="#path-9"/>
                        </mask>
                        <g id="i"/>
                        <path d="M141.988577,84.6931429 L9.33096793,84.6931429 C4.24717201,84.6931429 0.126134111,80.5730904 0.126134111,75.4902799 L0.126134111,9.52312536 C0.126134111,4.44031487 4.24717201,0.320262391 9.33195335,0.320262391 L141.988577,0.320262391 C147.073359,0.320262391 151.194397,4.44031487 151.194397,9.52411079 L151.194397,75.4902799 C151.194397,80.5730904 147.072373,84.6941283 141.988577,84.6941283" id="Path" fill="#5A5A5A" mask="url(#mask-10)"/>
                    </g>
                </g>
                <path d="M168.105236,287.74344 L167.133609,287.74344 C167.132624,291.062344 165.533283,294.085621 162.864758,296.322531 C160.200175,298.553528 156.475277,299.958741 152.343399,299.95677 C148.210536,299.958741 144.486624,298.553528 141.822041,296.322531 C139.154501,294.085621 137.554175,291.062344 137.55319,287.744426 C137.554175,284.425522 139.154501,281.402245 141.822041,279.165335 C144.486624,276.935324 148.210536,275.529125 152.343399,275.530111 C156.475277,275.530111 160.200175,276.935324 162.864758,279.166321 C165.533283,281.40323 167.131638,284.425522 167.133609,287.744426 L169.076863,287.744426 C169.077848,283.781055 167.149376,280.211854 164.112303,277.675376 C161.072274,275.134956 156.915761,273.588828 152.343399,273.587843 C147.771038,273.588828 143.613539,275.134956 140.574496,277.675376 C137.537423,280.211854 135.607965,283.781055 135.609936,287.744426 C135.607965,291.70681 137.537423,295.276012 140.574496,297.811504 C143.613539,300.35291 147.770052,301.899038 152.343399,301.900023 C156.915761,301.899038 161.072274,300.35291 164.112303,297.811504 C167.149376,295.276012 169.078834,291.70681 169.076863,287.744426 L168.105236,287.744426 L168.105236,287.74344 Z" id="Path" fill="#FFFFFF"/>
                <path d="M138.190758,135.791254 C143.748542,137.363988 148.716058,138.461749 154.538921,138.151341 C159.693668,137.875423 165.395324,136.993469 170.079038,134.776268 C170.549085,134.553563 170.205172,133.869679 169.740052,133.972163 C167.230181,134.525971 164.974548,135.335988 162.411464,135.755778 C159.601038,136.215971 156.809335,136.638717 153.960478,136.751055 C148.572187,136.96095 143.710111,135.857277 138.517918,134.60579 C137.749289,134.420531 137.427055,135.575446 138.190758,135.791254" id="Path" fill="#62352E"/>
                <path d="M188.600058,118.704023 C188.994227,116.300577 189.517487,113.908956 190.256554,111.585329 C190.477289,110.895534 190.891166,108.441831 191.808595,109.323784 C192.587079,110.07172 191.927831,112.707726 191.921918,113.68428 C191.917977,114.10407 192.523026,114.286373 192.727009,113.903044 C193.457207,112.533306 194.03565,106.172402 191.056717,107.151913 C189.636723,107.619003 189.260292,110.022449 188.905539,111.213825 C188.197167,113.609059 187.725194,116.06794 187.496385,118.555224 C187.436274,119.178997 188.496589,119.329767 188.600058,118.704023 M121.408023,116.944058 C120.56056,114.214437 119.933831,111.366566 118.762163,108.747312 C118.206385,107.503708 117.280087,105.92112 115.748741,105.771335 C111.735114,105.381108 113.76607,112.882146 114.374076,114.649009 C114.595796,115.289534 115.728047,115.244204 115.642315,114.477545 C115.496472,113.174816 115.177195,111.904606 114.960402,110.611732 C114.859889,110.010624 114.598752,109.254805 114.67463,108.657638 C114.933796,106.636536 116.448391,107.030706 117.301767,108.42705 C118.84691,110.95663 119.816566,114.345499 120.354606,117.234758 C120.482711,117.919627 121.619889,117.625971 121.409009,116.944058" id="Shape" fill="#725048" fill-rule="nonzero"/>
                <path d="M117.935394,96.1023673 L117.616117,96.0471837 C117.614146,96.0570379 116.783434,100.885609 116.783434,105.883673 C116.783434,107.984595 116.929277,110.116064 117.353009,111.945994 C117.778711,113.771983 118.473434,115.314169 119.648058,116.200064 C121.315394,117.445638 123.991802,118.511866 127.070262,119.283452 C130.146752,120.052082 133.620367,120.517201 136.85551,120.518187 C139.8847,120.516216 142.70498,120.114163 144.813784,119.142536 C145.800192,118.687271 146.582618,117.918641 147.197522,116.961796 C149.030408,114.088303 149.452169,109.489335 149.458082,105.600857 C149.458082,101.752781 149.024496,98.6092828 149.02351,98.600414 L149.007743,98.4890612 L148.926939,98.4102274 C148.892449,98.3757376 143.363242,93.0662799 132.346216,93.0662799 C128.256711,93.0662799 123.415329,93.798449 117.826012,95.7978717 L117.648636,95.8619242 L117.616117,96.0471837 L117.935394,96.1023673 L118.04379,96.4078484 C123.569055,94.4320758 128.333574,93.714688 132.346216,93.714688 C137.747318,93.714688 141.786566,95.0134752 144.473813,96.3093061 C145.529685,96.8120518 146.539354,97.4065758 147.491178,98.0860233 C147.812621,98.3177276 148.12304,98.5643533 148.421417,98.8250904 L148.465761,98.8654927 L148.477586,98.8773178 L148.702262,98.6437726 L148.382,98.689102 C148.382,98.689102 148.408606,98.8802741 148.448023,99.2310845 C148.56923,100.282531 148.810659,102.751015 148.809673,105.600857 C148.810659,108.159015 148.61456,111.024624 147.970093,113.435953 C147.649831,114.641125 147.21723,115.731988 146.651598,116.611971 C146.085965,117.492939 145.393213,118.162041 144.542793,118.553254 C142.571948,119.46477 139.825574,119.871749 136.856496,119.870764 C133.681464,119.870764 130.252192,119.411557 127.22793,118.654752 C124.202682,117.900904 121.578501,116.839603 120.036315,115.681732 C119.060746,114.956461 118.387703,113.556175 117.983679,111.799166 C117.5767,110.045114 117.430857,107.954047 117.431843,105.883673 C117.431843,103.420117 117.63681,100.984152 117.842764,99.1680175 C117.925603,98.4369992 118.020216,97.7073632 118.126566,96.9793936 C118.203429,96.4531778 118.253685,96.1585364 118.253685,96.157551 L117.935394,96.1023673 L118.04379,96.4078484 L117.935394,96.1023673 M186.399609,94.6104373 L186.118764,94.7720466 L186.155224,94.8360991 C186.520816,95.4933761 189.507633,101.113242 189.502706,107.222863 C189.500735,110.72407 188.536991,114.367178 185.571854,117.398338 C184.475079,118.524676 182.511131,119.39579 180.116554,119.960437 C177.721977,120.529026 174.901697,120.802974 172.088315,120.802974 C167.850997,120.804945 163.621563,120.17723 160.895883,119.033155 C159.918344,118.624204 159.128035,117.852618 158.48751,116.815953 C157.528694,115.263913 156.930542,113.125545 156.581703,110.879767 C156.232863,108.633003 156.128408,106.280799 156.129394,104.289259 C156.13027,102.75452 156.190426,101.220387 156.309726,99.6902915 C156.329434,99.4478776 156.342245,99.3197726 156.342245,99.3187872 L156.020012,99.2862682 L156.23779,99.5267114 L156.254542,99.5109446 C156.62309,99.1857551 163.208671,93.5195743 175.414117,93.5195743 C178.655172,93.5195743 182.294338,93.9186706 186.321761,94.9257726 L186.400595,94.6104373 L186.118764,94.7720466 L186.399609,94.6114227 L186.478443,94.2970729 C182.400764,93.2781458 178.708385,92.8721516 175.414117,92.8721516 C162.598694,92.8721516 155.836723,99.0142915 155.802233,99.0468105 L155.710589,99.1305714 L155.697778,99.2537493 C155.697778,99.2616327 155.480985,101.396058 155.480985,104.289259 C155.480985,106.975522 155.665259,110.312163 156.389545,113.227044 C156.751195,114.685469 157.247848,116.03944 157.936659,117.155924 C158.623499,118.271423 159.510379,119.156332 160.646571,119.630321 C163.507254,120.825638 167.785959,121.448426 172.088315,121.450397 C174.945055,121.450397 177.807708,121.174478 180.267324,120.591108 C182.724968,120.004781 184.784501,119.123813 186.035003,117.851633 C189.141055,114.680542 190.153085,110.838379 190.150128,107.223848 C190.145201,100.486513 186.691294,94.4754344 186.68144,94.4507988 L186.612461,94.3305773 L186.478443,94.2970729 L186.399609,94.6114227" id="Shape" fill="#848484" fill-rule="nonzero"/>
                <path d="M117.940321,98.3471603 C117.912729,98.5688805 117.885137,98.8034111 117.85656,99.0497668 L118.04379,99.1305714 L117.940321,98.3471603" id="Path" fill="#FFFFFF"/>
                <path d="M117.85656,99.0497668 L117.842764,99.1680175 C117.63681,100.984152 117.430857,103.419131 117.430857,105.883673 C117.430857,106.138898 117.432828,106.395108 117.437755,106.649347 C118.023096,107.247499 118.45077,108.050618 118.762163,108.747312 C118.98881,109.253819 119.194764,109.76821 119.385936,110.289499 C119.072571,107.208082 118.600554,103.3807 118.04379,99.1305714 L117.85656,99.0497668 M117.544181,108.839942 C117.620007,109.835559 117.76688,110.824486 117.983679,111.799166 C118.387703,113.553219 119.05779,114.951534 120.031388,115.67779 C119.496303,113.34628 118.689242,110.859073 117.544181,108.838956" id="Shape" fill="#764F49" fill-rule="nonzero"/>
                <path d="M122.384577,95.0637318 C120.980204,95.4311226 119.592126,95.8581981 118.224122,96.3437959 C118.119328,97.0103855 118.025044,97.6785851 117.941306,98.3481458 L118.04379,99.1305714 C118.600554,103.3807 119.071586,107.208082 119.385936,110.288513 C119.699412,111.157061 119.984678,112.035533 120.241283,112.922548 C120.517201,108.504898 121.372548,101.885813 122.384577,95.0627464" id="Path" fill="#242424"/>
                <path d="M132.346216,93.7137026 C129.425423,93.7137026 126.106519,94.0940758 122.384577,95.0637318 C121.372548,101.886799 120.517201,108.504898 120.241283,112.922548 C120.588152,114.101114 120.908414,115.290519 121.261195,116.460216 C122.804367,117.310636 124.897405,118.074338 127.226945,118.654752 C130.252192,119.411557 133.681464,119.870764 136.854525,119.870764 L136.871277,119.870764 C139.835429,119.870764 142.576875,119.463784 144.542793,118.554239 C145.393213,118.161055 146.085965,117.492939 146.651598,116.611971 C147.216245,115.731988 147.649831,114.641125 147.971079,113.435953 C148.61456,111.024624 148.810659,108.159015 148.809673,105.600857 C148.804815,103.328926 148.666949,101.059227 148.396781,98.8034111 C148.105333,98.5510039 147.80284,98.3116398 147.490192,98.0860233 C146.539124,97.4064791 145.530101,96.8119468 144.474799,96.3093061 C141.78558,95.0144606 137.748303,93.714688 132.346216,93.7137026 M128.993808,103.646764 L129.161329,103.366904 C129.280566,103.191499 129.469767,102.931347 129.77919,102.653458 C130.381283,102.081913 131.483971,101.472921 132.917761,101.125067 C133.63712,100.942764 134.411662,100.809732 135.267994,100.715131 C135.614863,100.680641 135.979469,100.656991 136.356886,100.656991 C136.908723,100.656991 137.486181,100.708233 138.071522,100.850134 C139.052017,101.086636 139.993096,101.552741 140.84056,102.156805 C141.69295,102.760869 142.458624,103.493038 143.204589,104.276449 L142.047703,103.606362 C141.313563,103.188542 140.267044,102.566741 138.947563,102.131184 C138.148339,101.868719 137.311376,101.739546 136.47021,101.74884 C135.766618,101.74884 135.01277,101.81979 134.222461,101.90158 C133.321784,101.996181 132.399429,102.11049 131.497767,102.350933 C130.601032,102.592362 129.708239,102.963866 128.994793,103.646764" id="Shape" fill="#846760" fill-rule="nonzero"/>
                <path d="M136.356886,100.656991 C135.980455,100.656991 135.614863,100.680641 135.267009,100.716117 C134.411662,100.808746 133.636134,100.942764 132.917761,101.125067 C131.484956,101.473907 130.382268,102.081913 129.780175,102.653458 C129.544796,102.864667 129.336589,103.10432 129.160344,103.366904 L128.993808,103.645778 C129.708239,102.963866 130.601032,102.592362 131.497767,102.350933 C132.399429,102.11049 133.320799,101.996181 134.222461,101.90158 C135.01277,101.81979 135.766618,101.747854 136.47021,101.747854 C136.573679,101.747854 136.677149,101.749825 136.777662,101.753767 C137.566,101.770519 138.285359,101.921289 138.947563,102.131184 C140.267044,102.565755 141.313563,103.188542 142.047703,103.605376 L143.204589,104.276449 C142.459609,103.493038 141.69295,102.760869 140.84056,102.156805 C139.993096,101.553726 139.052017,101.08565 138.071522,100.850134 C137.509691,100.717799 136.934078,100.65296 136.356886,100.656991" id="Path" fill="#764F49"/>
                <path d="M117.437755,106.649347 C117.451551,107.388414 117.485055,108.123539 117.544181,108.839942 C118.689242,110.860058 119.495318,113.34628 120.031388,115.67779 L120.036315,115.681732 C120.390082,115.947796 120.801003,116.207948 121.26021,116.461201 C120.908414,115.290519 120.588152,114.101114 120.241283,112.922548 C119.980146,112.035668 119.703242,111.153714 119.38495,110.288513 C119.194908,109.767859 118.987192,109.253828 118.762163,108.747312 C118.45077,108.050618 118.023096,107.247499 117.437755,106.649347" id="Path" fill="#846760"/>
                <path d="M132.346216,93.390484 C128.296128,93.390484 123.492192,94.1157551 117.935394,96.1023673 C117.935394,96.1023673 115.13088,112.413085 119.842187,115.940898 C123.050723,118.345329 130.445335,120.194968 136.856496,120.194968 C139.856122,120.194968 142.637971,119.789959 144.678781,118.847895 C151.079102,115.893598 148.702262,98.644758 148.702262,98.644758 C148.702262,98.644758 143.252875,93.390484 132.346216,93.390484 M122.384577,95.0637318 C126.106519,94.0940758 129.425423,93.7137026 132.347201,93.7137026 C137.747318,93.7137026 141.78558,95.0144606 144.473813,96.3093061 C145.529848,96.8117455 146.539543,97.4062849 147.491178,98.0860233 C147.804295,98.3110178 148.106816,98.5504039 148.397767,98.8034111 L148.448023,99.2300991 C148.684574,101.345508 148.805304,103.472268 148.809673,105.600857 C148.810659,108.159015 148.61456,111.024624 147.971079,113.436939 C147.649831,114.642111 147.216245,115.732974 146.651598,116.611971 C146.085965,117.493924 145.393213,118.161055 144.542793,118.554239 C142.575889,119.463784 139.834443,119.870764 136.871277,119.870764 L136.854525,119.870764 C133.681464,119.870764 130.252192,119.410571 127.226945,118.654752 C124.897405,118.073353 122.804367,117.310636 121.261195,116.461201 C120.835113,116.23045 120.425807,115.969982 120.036315,115.681732 L120.031388,115.67779 C119.05779,114.951534 118.387703,113.553219 117.982694,111.799166 C117.765904,110.824521 117.619357,109.835572 117.544181,108.839942 C117.485226,108.111073 117.449732,107.380497 117.437755,106.649347 C117.433187,106.394148 117.430888,106.138913 117.430857,105.883673 C117.430857,103.420117 117.63681,100.984152 117.842764,99.1680175 L117.85656,99.0497668 C117.959536,98.1449018 118.082086,97.2423717 118.224122,96.3428105 C119.592142,95.8575449 120.980219,95.4307982 122.384577,95.0637318" id="Shape" fill="#949494" fill-rule="nonzero"/>
                <path d="M189.206093,103.737423 C188.548816,108.184636 187.929971,112.087895 187.392915,115.092449 C187.780187,114.474589 188.104391,113.840962 188.374397,113.198466 C188.532064,112.534292 188.708455,111.873073 188.905539,111.21284 C189.033644,110.787137 189.161749,110.205738 189.342082,109.613499 C189.452449,108.815306 189.502706,108.015143 189.502706,107.223848 C189.503691,106.031487 189.391353,104.858834 189.206093,103.737423" id="Path" fill="#764F49"/>
                <path d="M185.102793,94.6370437 C185.873394,102.457359 186.462676,110.364391 186.770128,116.001994 C186.993819,115.703411 187.200758,115.399901 187.393901,115.091464 C187.929971,112.08888 188.548816,108.18365 189.206093,103.738408 C188.46407,99.2468513 186.56516,95.5869913 186.184787,94.8922682 C185.825069,94.8029152 185.464383,94.7175068 185.102793,94.6360583" id="Path" fill="#242424"/>
                <path d="M175.414117,93.5195743 C163.707294,93.5195743 157.170985,98.7324606 156.33042,99.4449213 L156.308741,99.6902915 C156.189962,101.220747 156.129807,102.755188 156.128408,104.290245 C156.128408,106.280799 156.232863,108.633988 156.581703,110.879767 C156.930542,113.126531 157.527708,115.264898 158.488496,116.815953 C159.12902,117.852618 159.917359,118.624204 160.895883,119.033155 C163.617621,120.175259 167.838187,120.802974 172.068606,120.802974 L172.088315,120.802974 C174.901697,120.802974 177.721977,120.529026 180.117539,119.960437 C182.512117,119.39579 184.475079,118.524676 185.57284,117.398338 C186.01628,116.945044 186.413405,116.479924 186.770128,116.001994 C186.464647,110.364391 185.873394,102.457359 185.102793,94.6370437 C181.556257,93.8418076 178.325055,93.5195743 175.414117,93.5195743 M162.79972,103.645778 L162.966257,103.366904 C163.085493,103.191499 163.274694,102.931347 163.585102,102.654443 C164.18621,102.082898 165.289883,101.473907 166.723673,101.124082 C167.442047,100.942764 168.216589,100.808746 169.072921,100.716117 C169.41979,100.680641 169.785382,100.656991 170.162799,100.656991 C170.714636,100.656991 171.291108,100.708233 171.877434,100.850134 C172.856945,101.08565 173.799009,101.552741 174.646472,102.156805 C175.497878,102.760869 176.264536,103.493038 177.009516,104.276449 L175.85263,103.605376 C175.11849,103.188542 174.071971,102.566741 172.75249,102.131184 C171.953774,101.868018 171.117017,101.738825 170.276122,101.74884 C169.572531,101.74884 168.817697,101.81979 168.027388,101.90158 C167.127697,101.997166 166.205341,102.11049 165.303679,102.350933 C164.406945,102.592362 163.514152,102.963866 162.79972,103.645778" id="Shape" fill="#846760" fill-rule="nonzero"/>
                <path d="M170.162799,100.656991 C169.785382,100.656991 169.41979,100.680641 169.072921,100.716117 C168.216589,100.808746 167.442047,100.942764 166.723673,101.125067 C165.289883,101.473907 164.188181,102.081913 163.585102,102.653458 C163.350193,102.864848 163.142333,103.104483 162.966257,103.366904 L162.798735,103.645778 C163.514152,102.963866 164.406945,102.592362 165.303679,102.350933 C166.205341,102.11049 167.126711,101.996181 168.027388,101.90158 C168.818682,101.81979 169.572531,101.747854 170.276122,101.747854 C170.379592,101.747854 170.482076,101.749825 170.582589,101.753767 C171.371913,101.770519 172.090286,101.921289 172.75249,102.131184 C174.072956,102.565755 175.11849,103.188542 175.85263,103.605376 L177.009516,104.276449 C176.264536,103.493038 175.497878,102.760869 174.646472,102.156805 C173.799009,101.553726 172.856945,101.08565 171.877434,100.850134 C171.315603,100.717799 170.739991,100.65296 170.162799,100.656991" id="Path" fill="#764F49"/>
                <path d="M189.342082,109.613499 C189.162735,110.204752 189.032659,110.787137 188.905539,111.21284 C188.708455,111.873073 188.532064,112.534292 188.373411,113.198466 C188.865137,112.025813 189.173574,110.821627 189.342082,109.613499" id="Path" fill="#846760"/>
                <path d="M175.414117,93.1953703 C162.708076,93.1963557 156.020997,99.2862682 156.020997,99.2862682 C156.020997,99.2862682 154.266945,116.61 160.770735,119.331738 C163.564408,120.501434 167.818478,121.127178 172.088315,121.127178 C177.757452,121.127178 183.456152,120.023504 185.803429,117.624985 C194.493872,108.747312 186.399609,94.6114227 186.399609,94.6114227 L186.118764,94.7720466 L186.399609,94.6114227 C182.346566,93.5984082 178.681778,93.1953703 175.414117,93.1953703 M156.33042,99.4449213 C157.170985,98.7324606 163.70828,93.5185889 175.414117,93.5195743 C178.325055,93.5195743 181.556257,93.8418076 185.102793,94.6370437 C185.460501,94.716863 185.822152,94.8016093 186.185773,94.8912828 C186.56516,95.5869913 188.465055,99.2468513 189.206093,103.738408 C189.391353,104.858834 189.503691,106.031487 189.502706,107.223848 C189.502706,108.016128 189.453434,108.815306 189.342082,109.613499 C189.175874,110.8453 188.850599,112.050342 188.374397,113.198466 C187.957484,114.195648 187.418623,115.137331 186.770128,116.001994 C186.413405,116.479924 186.015294,116.946029 185.57284,117.398338 C184.475079,118.524676 182.512117,119.39579 180.116554,119.960437 C177.721977,120.529026 174.902682,120.802974 172.088315,120.802974 L172.068606,120.802974 C167.838187,120.802974 163.617621,120.175259 160.895883,119.033155 C159.918344,118.624204 159.128035,117.852618 158.488496,116.815953 C157.528694,115.263913 156.930542,113.125545 156.582688,110.879767 C156.232863,108.633003 156.129394,106.280799 156.129394,104.290245 C156.130245,102.755177 156.1904,101.220715 156.309726,99.6902915 L156.33042,99.4449213" id="Shape" fill="#949494" fill-rule="nonzero"/>
                <path d="M115.586146,98.5807055 C121.21488,96.2649621 127.615201,95.0006647 133.690332,95.2736268 C141.595394,95.628379 146.877259,102.194251 154.857213,100.850134 C157.305003,100.438227 158.572257,98.919691 160.892927,97.8071487 C170.056373,93.4131487 181.335522,95.2213994 190.755178,97.4612653 C193.221691,98.0475918 194.201201,94.2340058 191.733703,93.6476793 C182.26379,91.3950029 171.86758,89.882379 162.392741,93.0061691 C160.183423,93.7353819 158.043085,94.7139067 156.122496,96.0324023 C155.655405,96.3526647 155.15284,96.9912187 154.641405,97.2119534 C153.376122,97.7568921 156.464437,96.7517609 154.786262,96.9133703 C150.950997,97.2838892 149.211726,96.3437959 146.173668,94.5355452 C142.46158,92.3272128 137.879364,91.5063557 133.619382,91.336863 C127.222017,91.0826239 120.395009,92.3656443 114.470647,94.8035802 C112.152933,95.7574694 113.237883,99.5474052 115.586146,98.5807055" id="Path" fill="#030303"/>
                <path d="M163.526962,91.8768746 C166.120595,88.1401516 173.109213,86.399895 176.98291,89.180758 C178.254105,90.0932595 179.469131,87.9883965 178.208776,87.0837784 C173.163411,83.4613644 164.764653,85.8460875 161.429983,90.6510087 C160.536204,91.9379708 162.641067,93.1539825 163.526962,91.8768746 M127.722612,89.7040175 C132.336362,87.0522449 137.57684,87.6395569 141.420974,91.3151837 C142.550268,92.3961924 144.270816,90.6815569 143.138566,89.5985773 C138.50905,85.1710729 132.05256,84.4142682 126.496746,87.6080233 C125.142776,88.3865073 126.363714,90.4854577 127.722612,89.7040175 M142.186647,108.763079 C141.181516,108.95228 140.156676,109.284367 139.129866,109.280426 C136.370682,109.788904 129.020414,108.103831 128.271493,107.758933 C127.566915,108.186606 127.315633,109.399662 128.273464,109.924892 C132.343259,112.156875 139.611738,112.532321 143.480507,109.530723 C144.078659,109.067574 144.258991,108.804466 143.948583,108.298945 C143.383936,108.503913 142.795638,108.647784 142.185662,108.762093" id="Shape" fill="#030303" fill-rule="nonzero"/>
                <path d="M132.803452,112.048478 C133.284338,113.122589 134.172204,113.784793 135.367522,113.861656 C136.538204,113.937534 137.781808,113.832093 138.724857,113.024047 C139.90835,112.009061 139.442245,110.173219 137.971994,110.715201 C137.577825,110.861044 135.399055,111.935155 135.112297,111.296601 C134.842292,110.692536 134.25498,110.306251 133.58095,110.518117 C133.006449,110.699434 132.535417,111.451312 132.802466,112.048478 M175.395394,108.098904 C173.395971,109.584921 164.870093,109.127685 163.710251,108.847825 C162.767201,108.617236 161.847802,108.335405 160.982601,107.922513 C160.568723,108.460554 160.799312,109.200606 161.561044,109.63912 C165.583539,111.954863 172.767271,113.069376 176.697137,110.149569 C177.943697,109.223271 176.654764,107.163738 175.396379,108.099889" id="Shape" fill="#030303" fill-rule="nonzero"/>
                <path d="M165.842706,111.928257 C166.284175,113.018134 167.147405,113.711872 168.339767,113.832093 C169.506507,113.950344 170.721534,113.805487 171.725679,113.116676 C173.010671,112.234723 172.544566,110.29344 171.055592,110.78221 C170.657481,110.913271 168.441265,111.907563 168.178157,111.259155 C167.929831,110.646222 167.356315,110.239242 166.675388,110.426472 C166.093988,110.586111 165.59635,111.320251 165.842706,111.928257" id="Path" fill="#030303"/>
                <g id="Group" transform="translate(0.000000, 275.918367)">
                    <path d="M3.56131778,61.9791487 L307.04393,61.9791487 C307.986621,61.9809799 308.89143,61.6082526 309.559307,60.9429628 C310.227184,60.277673 310.60342,59.3743181 310.605248,58.4316268 C310.605248,56.4735918 309.010834,54.8850904 307.04393,54.8850904 L3.56131778,54.8850904 C2.61854687,54.8829975 1.71358673,55.2556406 1.0456529,55.920987 C0.377719073,56.5863333 0.00156635129,57.4898403 0,58.4326122 C0,60.3906472 1.59441399,61.9791487 3.56131778,61.9791487" id="Path" fill="#000000"/>
                    <path d="M29.8878717,3.64409329 L33.1259708,4.93401166 C33.9379592,5.25723032 34.9046589,4.5802449 35.1165248,3.80767347 C35.3707638,2.88925948 34.8011895,2.149207 33.9862449,1.82500292 L30.7491312,0.535084548 C29.9371429,0.211865889 28.9704431,0.887865889 28.7585773,1.66142274 C28.5043382,2.57983673 29.0739125,3.31988921 29.8878717,3.64409329 M35.9777843,8.64018659 C37.4874519,9.7152828 38.9990904,10.790379 40.5107289,11.8644898 C41.2212187,12.3709971 42.3120816,11.9896385 42.7239883,11.2860466 C43.1999475,10.4770146 42.8570204,9.58816327 42.1445598,9.08067055 L37.6116152,5.85636735 C36.8991545,5.34986006 35.809277,5.73121866 35.3963848,6.4348105 C34.9204257,7.24482799 35.2633528,8.13269388 35.9777843,8.64018659 M45.9325248,14.9153586 C47.059258,16.0012654 48.4520224,16.7713982 49.9707872,17.1483265 C51.9938601,17.6439942 52.8580758,14.5349854 50.8320466,14.0393178 C49.8318426,13.7949329 48.9686122,13.3465656 48.2226472,12.6350904 C46.7169213,11.1993294 44.424828,13.4766414 45.9325248,14.9153586 M54.0583207,20.9934461 L57.9586239,22.8992536 C58.742035,23.2835685 59.7087347,23.1101341 60.1728688,22.3208105 C60.5897026,21.6113061 60.3798076,20.5007347 59.5914694,20.1154344 L55.693137,18.2096268 C54.9087405,17.825312 53.9410554,17.9977609 53.4779067,18.78807 C53.0610729,19.4975743 53.2709679,20.6081458 54.0593061,20.9934461 M278.982047,4.16636735 L275.743948,5.45727114 C274.931959,5.7804898 273.966245,5.10251895 273.753394,4.33093294 C273.499155,3.41153353 274.068729,2.67246647 274.883673,2.34727697 L278.120787,1.05834402 C278.932776,0.734139942 279.899475,1.41112536 280.112327,2.18369679 C280.366566,3.10211079 279.796991,3.84216327 278.982047,4.16636735 M272.89312,9.16344606 C271.382466,10.2375569 269.870828,11.3116676 268.360175,12.3877493 C267.6487,12.8932711 266.557837,12.5119125 266.14593,11.8093061 C265.669971,10.9992886 266.012898,10.1114227 266.725359,9.60393003 L271.258303,6.37962682 C271.970764,5.87213411 273.060641,6.25447813 273.473534,6.95806997 C273.949493,7.76808746 273.606566,8.65595335 272.892134,9.16344606 M262.937394,15.4376327 C261.81066,16.5235395 260.417896,17.2936723 258.899131,17.6706006 C256.876058,18.1662682 256.011843,15.0572595 258.037872,14.5625773 C259.038076,14.317207 259.902292,13.8698251 260.648257,13.1573644 C262.152997,11.7225889 264.446076,13.9989155 262.937394,15.4376327 M254.810612,21.5157201 L250.911294,23.4225131 C250.127883,23.8058426 249.161184,23.6333936 248.69705,22.84407 C248.280216,22.1345656 248.490111,21.0230087 249.278449,20.6386939 C250.577236,20.0021108 251.877009,19.3674985 253.176781,18.7319009 C253.961178,18.347586 254.928863,18.5210204 255.392012,19.310344 C255.808845,20.0198484 255.59895,21.1314052 254.810612,21.5157201" id="Shape" fill="#FFFFFF" fill-rule="nonzero"/>
                </g>
            </g>
        </g>
    </g>
</svg>